<?xml version="1.0" standalone="no"?><!DOCTYPE svg PUBLIC "-//W3C//DTD SVG 1.1//EN" "http://www.w3.org/Graphics/SVG/1.1/DTD/svg11.dtd"><svg t="1624542890082" class="icon" viewBox="0 0 1024 1024" version="1.1" xmlns="http://www.w3.org/2000/svg" p-id="3031" xmlns:xlink="http://www.w3.org/1999/xlink" width="200" height="200"><defs><style type="text/css"></style></defs><path d="M799.091694 882.951052c0 35.326234-28.005 63.9968-62.307285 63.996801H287.16849c-34.40468-0.102395-62.307285-28.670566-62.460877-63.996801V204.226589h574.435278v678.724463zM349.526972 89.441928a12.79936 12.79936 0 0 1 12.79936-13.157742h299.965801a12.79936 12.79936 0 0 1 12.748163 13.157742v38.551672H349.526972v-38.551672z m636.691365 38.551672H749.532571v-38.551672C749.532571 40.292385 710.36653 0.051197 662.292133 0.051197H362.377529c-48.125594 0.102395-87.138043 40.036398-87.240438 89.390731v38.551672H37.632166A37.988501 37.988501 0 0 0 0.002048 166.494075c0 21.298135 16.741563 38.551672 37.630118 38.551673h111.917605v677.905304C149.549771 960.822359 211.191489 1024 287.219687 1024h449.513524c75.977001 0 137.618719-63.177641 137.61872-141.048948V204.226589h112.019999A38.090895 38.090895 0 0 0 1023.950851 165.674916a37.271736 37.271736 0 0 0-37.732514-37.681316zM511.925252 831.344033a38.090895 38.090895 0 0 0 37.630118-38.60287V382.905655A38.090895 38.090895 0 0 0 511.976449 344.353982a38.090895 38.090895 0 0 0-37.630118 38.551673v409.835508c0 21.298135 16.895155 38.60287 37.630118 38.60287m-175.146442 0a38.090895 38.090895 0 0 0 37.630118-38.60287V382.905655a38.090895 38.090895 0 0 0-37.630118-38.551673 38.090895 38.090895 0 0 0-37.630119 38.551673v409.835508c0.767962 21.298135 17.663117 38.60287 37.630119 38.60287m350.292885 0a38.090895 38.090895 0 0 0 37.630118-38.60287V382.905655a38.090895 38.090895 0 0 0-37.630118-38.551673 38.090895 38.090895 0 0 0-37.630119 38.551673v409.835508c0.102395 21.298135 16.895155 38.60287 37.630119 38.60287" fill="#ffffff" p-id="3032"></path></svg>