<?xml version="1.0" standalone="no"?><!DOCTYPE svg PUBLIC "-//W3C//DTD SVG 1.1//EN" "http://www.w3.org/Graphics/SVG/1.1/DTD/svg11.dtd"><svg t="1624263106827" class="icon" viewBox="0 0 1084 1024" version="1.1" xmlns="http://www.w3.org/2000/svg" p-id="2418" xmlns:xlink="http://www.w3.org/1999/xlink" width="211.71875" height="200"><defs><style type="text/css"></style></defs><path d="M184.83361091 241.54245141h697.95496331a34.89774795 34.89774795 0 1 0 0-69.79549591H184.83361091a34.89774795 34.89774795 0 1 0-1e-8 69.79549591zM184.83361091 546.89774795h414.41075932a34.89774795 34.89774795 0 1 0 0-69.7954959H184.83361091a34.89774795 34.89774795 0 1 0-1e-8 69.7954959zM184.83361091 852.25304449h196.29983373a34.89774795 34.89774795 0 1 0 1e-8-69.7954959H184.83361091a34.89774795 34.89774795 0 1 0-1e-8 69.7954959z" p-id="2419" fill="#707070"></path></svg>