<?xml version="1.0" standalone="no"?><!DOCTYPE svg PUBLIC "-//W3C//DTD SVG 1.1//EN" "http://www.w3.org/Graphics/SVG/1.1/DTD/svg11.dtd"><svg t="1624330472909" class="icon" viewBox="0 0 1024 1024" version="1.1" xmlns="http://www.w3.org/2000/svg" p-id="17861" xmlns:xlink="http://www.w3.org/1999/xlink" width="200" height="200"><defs><style type="text/css"></style></defs><path d="M940.8 358.4L217.6 19.2c-44.8-25.6-102.4-25.6-147.2 0C25.6 51.2 0 96 0 153.6v192C0 396.8 44.8 448 102.4 448h102.4v102.4H102.4C44.8 544 0 588.8 0 646.4v192c0 51.2 25.6 102.4 70.4 128 25.6 12.8 51.2 25.6 83.2 25.6 19.2 0 44.8-6.4 64-12.8l723.2-345.6c51.2-25.6 83.2-76.8 83.2-140.8 0-57.6-32-108.8-83.2-134.4zM896 544L172.8 883.2c-12.8 12.8-38.4 6.4-51.2-6.4-12.8-12.8-19.2-19.2-19.2-38.4v-192h102.4c57.6 0 102.4-44.8 102.4-102.4V448c0-57.6-44.8-102.4-102.4-102.4H102.4v-192c0-19.2 12.8-38.4 25.6-38.4 12.8-12.8 32-12.8 51.2-6.4L896 448c19.2 12.8 32 25.6 32 44.8 0 25.6-12.8 38.4-32 51.2z" p-id="17862" fill="#1296db"></path><path d="M704 448H454.4c-32 0-51.2 19.2-51.2 44.8s19.2 51.2 51.2 51.2H704c32 0 51.2-19.2 51.2-51.2S736 448 704 448z" p-id="17863" fill="#1296db"></path></svg>